<?xml version="1.0" standalone="no"?>
<!DOCTYPE svg PUBLIC "-//W3C//DTD SVG 20010904//EN"
 "http://www.w3.org/TR/2001/REC-SVG-20010904/DTD/svg10.dtd">
<svg version="1.0" xmlns="http://www.w3.org/2000/svg"
 width="1366.000000pt" height="768.000000pt" viewBox="0 0 1366.000000 768.000000"
 preserveAspectRatio="xMidYMid meet">

<g transform="translate(0.000000,768.000000) scale(0.100000,-0.100000)"
fill="#000000" stroke="none">
<path d="M0 3840 l0 -3840 1696 0 1696 0 -6 25 c-8 30 3 77 15 69 5 -3 9 3 9
13 1 28 21 48 62 60 51 15 58 4 49 -78 -4 -37 -5 -72 -3 -78 3 -8 1343 -11
5073 -11 l5069 0 0 110 0 109 -32 5 c-18 3 -55 8 -83 11 -34 5 -92 29 -185 78
-424 223 -405 211 -443 282 -20 37 -22 52 -19 200 1 88 12 259 23 380 11 121
42 463 70 760 41 453 93 1046 139 1620 5 66 14 197 20 290 6 94 22 330 35 525
14 195 41 605 60 910 60 958 65 1023 79 1128 17 121 37 165 95 210 41 31 45
32 142 32 l99 0 0 255 c0 209 -2 255 -14 255 -7 0 -47 -11 -89 -25 -42 -13
-129 -38 -195 -55 -276 -69 -314 -114 -333 -390 -6 -80 -14 -224 -18 -320 -8
-169 -9 -177 -41 -244 -44 -91 -49 -150 -20 -218 21 -48 22 -63 17 -163 -10
-192 -77 -1097 -87 -1180 -5 -44 -26 -280 -45 -525 -52 -647 -104 -1226 -165
-1824 -43 -414 -46 -430 -97 -457 -21 -11 -31 -9 -76 13 -29 14 -97 61 -152
104 -94 74 -179 122 -489 276 -159 79 -465 184 -644 221 -115 24 -131 55 -114
212 22 194 51 443 86 720 19 154 46 384 60 510 15 127 42 365 61 530 19 165
46 404 60 530 93 823 93 823 121 902 25 74 26 84 20 204 -3 73 -1 160 5 206
14 106 2 153 -56 210 -45 46 -50 47 -170 43 -27 -1 -219 -39 -425 -85 -206
-46 -463 -102 -570 -124 -107 -22 -305 -63 -440 -91 -135 -28 -294 -58 -355
-66 -108 -15 -137 -21 -280 -62 -38 -12 -194 -48 -345 -82 -325 -71 -392 -92
-420 -128 -42 -53 -6 -85 67 -59 29 10 77 17 123 17 91 0 766 75 865 96 38 8
137 21 218 30 149 15 196 28 289 78 109 58 229 83 473 96 105 5 221 19 304 35
173 33 220 34 260 6 52 -37 71 -73 71 -134 0 -56 -39 -226 -65 -282 -8 -16
-19 -68 -25 -115 -5 -47 -15 -120 -21 -162 -8 -58 -8 -106 0 -190 l12 -113
-86 -690 c-47 -379 -103 -823 -124 -985 -22 -162 -51 -385 -66 -495 -75 -579
-95 -703 -127 -805 -34 -110 -103 -151 -190 -111 -25 11 -78 27 -118 35 -54
12 -96 29 -156 66 -45 27 -99 57 -120 66 -62 26 -301 146 -400 202 -251 140
-301 155 -372 112 -43 -26 -50 -50 -45 -140 4 -67 2 -79 -19 -110 -13 -19 -40
-43 -61 -53 -49 -24 -76 -15 -173 59 -40 31 -120 80 -176 108 -93 46 -105 56
-126 96 -33 63 -28 157 10 197 52 56 61 107 32 169 -28 58 -155 145 -344 236
-111 53 -153 85 -182 141 -29 57 -33 140 -14 292 27 218 20 310 -31 426 -28
63 -39 67 -75 30 -61 -62 -121 -29 -139 78 -8 45 -8 96 0 186 6 69 11 185 11
258 0 192 29 476 105 1037 16 120 13 144 -24 183 -56 61 -110 69 -158 25 -32
-30 -37 -70 -19 -152 19 -83 30 14 -104 -866 -39 -256 -91 -598 -115 -760 -51
-346 -69 -408 -135 -453 -36 -25 -78 -21 -156 17 -137 65 -178 59 -270 -40
-55 -59 -64 -65 -95 -62 -54 5 -65 40 -50 160 11 91 11 100 -8 136 -11 22 -42
56 -68 75 -79 59 -150 138 -180 202 -25 54 -28 70 -28 165 1 73 6 122 19 160
10 32 20 101 23 165 l5 110 -37 70 c-46 86 -58 118 -100 270 -59 216 -58 213
-45 355 12 138 10 162 -24 198 -47 52 -120 67 -166 35 -13 -10 -49 -27 -78
-38 -58 -21 -88 -52 -96 -97 -7 -41 16 -54 67 -40 34 9 46 8 64 -4 46 -29 39
-143 -12 -225 -25 -38 -29 -41 -68 -39 -62 4 -64 3 -86 -34 -44 -70 -14 -142
61 -148 36 -3 45 -8 63 -38 17 -30 20 -52 19 -150 0 -109 -10 -182 -51 -355
-27 -119 -62 -154 -103 -102 -10 13 -34 31 -54 42 -21 12 -45 37 -60 66 -32
58 -77 107 -139 148 -26 18 -59 49 -72 70 -22 33 -26 50 -28 148 l-4 111 -41
43 c-23 24 -42 52 -42 62 0 10 -9 55 -21 100 -26 100 -23 222 6 277 25 47 25
162 2 305 -10 61 -21 164 -24 231 -5 114 -4 126 26 233 40 140 44 259 14 396
-41 189 -41 341 2 550 15 73 27 166 27 211 1 72 -3 90 -30 145 -16 35 -42 75
-56 88 -14 14 -26 30 -26 38 0 7 -4 13 -8 13 -11 0 -32 91 -32 136 l0 34 -639
0 -638 0 -7 -46 c-3 -26 -6 -62 -6 -80 0 -20 -17 -65 -42 -111 -124 -233 -139
-294 -143 -573 -2 -192 -8 -242 -45 -390 -19 -75 -38 -269 -43 -429 -2 -77 -4
-86 -27 -103 -28 -20 -114 -34 -154 -24 -40 10 -41 43 -7 116 56 118 34 229
-64 319 -34 31 -63 46 -132 66 -396 119 -389 116 -588 277 -118 95 -209 145
-336 182 -46 13 -133 41 -192 61 -136 45 -200 53 -457 51 -195 -1 -209 -3
-281 -28 -42 -15 -97 -38 -121 -52 -69 -38 -149 -66 -192 -66 -32 0 -46 7 -81
43 -38 38 -43 50 -59 130 -23 117 -53 208 -122 364 -31 70 -65 165 -76 211
l-21 82 -523 0 -524 0 0 -3840z m1323 1617 c45 -42 62 -99 62 -207 0 -83 -1
-88 -52 -189 -83 -162 -73 -204 93 -406 117 -143 251 -322 287 -385 42 -73 52
-129 31 -176 -9 -21 -19 -70 -23 -108 -5 -55 -10 -70 -23 -72 -9 -1 -83 20
-163 47 -80 27 -153 49 -162 49 -8 0 -75 14 -147 31 -217 50 -334 121 -424
256 -59 90 -37 149 94 248 59 44 78 66 103 117 17 35 38 97 47 138 8 41 26
104 39 140 12 36 32 108 44 160 11 52 31 127 44 165 21 61 34 113 53 203 7 35
55 30 97 -11z m1630 -773 c38 -20 147 -102 233 -176 34 -29 88 -69 120 -88 33
-19 85 -58 116 -87 60 -55 137 -99 225 -127 29 -10 69 -29 90 -43 21 -14 65
-40 98 -58 41 -23 70 -48 92 -80 38 -54 41 -90 14 -143 -25 -49 -144 -163
-200 -192 -59 -29 -116 -23 -276 32 -210 72 -265 102 -286 157 -12 30 21 82
82 131 53 42 64 73 43 110 -35 58 -67 65 -294 65 l-205 0 -90 44 c-120 59
-156 55 -210 -24 -16 -25 -35 -45 -40 -45 -17 0 -103 93 -114 123 -24 64 -11
109 66 222 55 80 116 126 196 148 219 59 275 64 340 31z m4453 -2085 c32 -6
109 -32 170 -59 71 -31 137 -52 187 -60 119 -18 203 -45 322 -104 61 -30 144
-70 185 -90 86 -40 140 -85 140 -116 0 -12 -13 -34 -28 -50 -41 -40 -110 -47
-292 -26 -181 20 -238 20 -365 1 -55 -9 -174 -16 -265 -18 -149 -2 -171 0
-231 21 -95 33 -121 68 -219 286 -12 27 -24 70 -27 95 -5 41 -2 49 22 73 28
29 36 31 210 46 55 5 107 10 116 10 8 1 42 -3 75 -9z m-5495 -68 c35 -36 37
-51 5 -51 -22 0 -86 53 -86 72 0 20 54 6 81 -21z m3929 -1531 c0 -6 -7 -13
-15 -16 -23 -9 -18 -22 15 -39 25 -13 30 -22 30 -51 0 -40 -49 -153 -66 -154
-14 0 -44 -44 -44 -64 0 -16 -79 -58 -92 -50 -12 8 -9 21 8 38 8 9 12 20 9 26
-3 5 4 11 17 11 17 1 18 3 6 6 -10 2 -18 13 -18 23 0 24 -42 70 -63 70 -9 0
-25 11 -36 26 -43 54 -134 48 -266 -18 -99 -49 -132 -74 -217 -160 -75 -75
-106 -85 -156 -49 -32 22 -112 38 -112 22 0 -6 -17 -11 -37 -11 -28 0 -34 3
-23 10 11 7 5 10 -25 11 -61 3 -79 0 -91 -16 -6 -8 -19 -12 -31 -9 -11 3 -24
1 -27 -5 -9 -14 -46 -15 -46 -1 0 5 17 17 38 26 20 10 84 46 142 80 168 99
251 129 400 145 113 12 158 25 312 90 71 30 142 53 180 58 94 13 208 13 208 1z"/>
<path d="M13601 7645 c19 -19 39 -35 46 -35 8 0 13 13 13 35 0 35 0 35 -46 35
l-46 0 33 -35z"/>
<path d="M10490 3595 c-1 -11 -4 -31 -7 -45 -7 -42 -7 -53 1 -110 5 -42 4 -51
-4 -40 -9 12 -11 10 -7 -12 2 -16 1 -28 -3 -28 -16 0 -18 -41 -3 -56 36 -35
46 0 58 206 6 93 5 103 -9 87 -14 -18 -14 -18 -19 0 -4 16 -5 16 -7 -2z"/>
</g>
</svg>
